<?xml version="1.0" standalone="no"?>
<!DOCTYPE svg PUBLIC "-//W3C//DTD SVG 20010904//EN"
 "http://www.w3.org/TR/2001/REC-SVG-20010904/DTD/svg10.dtd">
<svg version="1.0" xmlns="http://www.w3.org/2000/svg"
 width="225.000000pt" height="225.000000pt" viewBox="0 0 225.000000 225.000000"
 preserveAspectRatio="xMidYMid meet">

<g transform="translate(0.000000,225.000000) scale(0.100000,-0.100000)"
fill="#000000" stroke="none">
<path d="M894 2130 c-146 -21 -243 -120 -274 -278 -19 -97 -8 -269 24 -369 74
-231 249 -345 411 -269 96 45 182 165 220 306 22 81 30 234 16 315 -35 209
-191 325 -397 295z m168 -72 c60 -18 130 -89 154 -159 15 -43 19 -81 18 -184
0 -113 -3 -140 -27 -211 -33 -99 -87 -179 -151 -221 -146 -99 -315 31 -372
284 -23 106 -16 280 14 348 64 140 198 193 364 143z"/>
<path d="M1480 1235 c-279 -63 -464 -327 -422 -602 41 -267 266 -459 537 -456
157 2 285 59 390 175 91 99 136 218 136 358 1 287 -213 513 -503 534 -46 4
-97 0 -138 -9z m196 -56 c284 -52 461 -359 361 -629 -38 -102 -96 -177 -182
-235 -190 -125 -424 -106 -591 48 -203 188 -204 506 -2 693 70 64 138 101 222
119 77 17 117 18 192 4z"/>
<path d="M1651 756 c-64 -64 -123 -116 -130 -116 -7 0 -37 23 -66 51 -35 33
-60 49 -70 45 -30 -11 -13 -44 60 -115 61 -59 77 -70 92 -62 27 14 273 266
273 279 0 6 -9 16 -21 22 -18 10 -33 0 -138 -104z"/>
<path d="M656 1080 c-37 -57 -90 -79 -186 -80 -51 0 -86 -6 -110 -18 -106 -53
-168 -250 -190 -610 -8 -114 -8 -168 0 -182 10 -20 21 -20 464 -20 389 0 455
2 466 15 7 8 10 22 6 30 -5 13 -43 15 -274 15 -195 0 -271 3 -280 12 -8 8 -12
57 -12 154 0 117 -3 143 -15 148 -40 15 -45 0 -45 -148 0 -97 -4 -146 -12
-154 -8 -8 -49 -12 -120 -12 -96 0 -108 2 -118 20 -13 24 3 253 25 380 29 158
77 274 124 300 11 5 48 10 84 10 35 0 88 7 118 16 97 29 191 152 123 162 -15
2 -28 -9 -48 -38z"/>
</g>
</svg>
